<?xml version="1.0" encoding="UTF-8"?>
<svg width="98px" height="10px" viewBox="0 0 98 10" version="1.1" xmlns="http://www.w3.org/2000/svg" xmlns:xlink="http://www.w3.org/1999/xlink">
    <title>Logo - BLOGPLATFORM</title>
    <g id="High-Fidelity" stroke="none" stroke-width="1" fill="none" fill-rule="evenodd">
        <g id="Blog-Homepage" transform="translate(-165.000000, -28.000000)" fill="#FFFFFF" fill-rule="nonzero">
            <g id="Navigation" transform="translate(165.000000, 24.000000)">
                <path d="M4.25976562,13 C5.26757812,13 6.06347656,12.7763672 6.64746094,12.3291016 C7.23144531,11.8818359 7.5234375,11.2695312 7.5234375,10.4921875 C7.5234375,9.96875 7.40429688,9.54296875 7.16601562,9.21484375 C6.92773438,8.88671875 6.54296875,8.65234375 6.01171875,8.51171875 L6.01171875,8.51171875 L6.01171875,8.453125 C6.4140625,8.35546875 6.73828125,8.13671875 6.984375,7.796875 C7.23046875,7.45703125 7.35351562,7.046875 7.35351562,6.56640625 C7.35351562,5.8359375 7.07128906,5.29785156 6.50683594,4.95214844 C5.94238281,4.60644531 5.078125,4.43359375 3.9140625,4.43359375 L3.9140625,4.43359375 L0.92578125,4.43359375 L0.92578125,13 L4.25976562,13 Z M3.9375,7.72070312 L3.24023438,7.72070312 L3.24023438,6.18554688 L3.890625,6.18554688 C4.6171875,6.18554688 4.98046875,6.42578125 4.98046875,6.90625 C4.98046875,7.17578125 4.88964844,7.37890625 4.70800781,7.515625 C4.52636719,7.65234375 4.26953125,7.72070312 3.9375,7.72070312 L3.9375,7.72070312 Z M4.0546875,11.2128906 L3.24023438,11.2128906 L3.24023438,9.4140625 L4.0078125,9.4140625 C4.375,9.4140625 4.65527344,9.49023438 4.84863281,9.64257812 C5.04199219,9.79492188 5.13867188,10.0136719 5.13867188,10.2988281 C5.13867188,10.9082031 4.77734375,11.2128906 4.0546875,11.2128906 L4.0546875,11.2128906 Z M14.1964286,13 L14.1964286,11.1308594 L10.8976004,11.1308594 L10.8976004,4.43359375 L8.58314732,4.43359375 L8.58314732,13 L14.1964286,13 Z M18.9885603,13.1171875 C20.3518415,13.1171875 21.3869978,12.7421875 22.094029,11.9921875 C22.8010603,11.2421875 23.1545759,10.1464844 23.1545759,8.70507812 C23.1545759,7.25976562 22.8030134,6.1640625 22.0998884,5.41796875 C21.3967634,4.671875 20.3635603,4.29882812 19.000279,4.29882812 C17.640904,4.29882812 16.6047712,4.67480469 15.8918806,5.42675781 C15.17899,6.17871094 14.8225446,7.26757812 14.8225446,8.69335938 C14.8225446,10.1347656 15.1809431,11.2324219 15.89774,11.9863281 C16.6145368,12.7402344 17.6448103,13.1171875 18.9885603,13.1171875 Z M18.9885603,11.1894531 C17.8362165,11.1894531 17.2600446,10.3613281 17.2600446,8.70507812 C17.2600446,7.03320312 17.8401228,6.19726562 19.000279,6.19726562 C19.5705915,6.19726562 19.9993025,6.40136719 20.2864118,6.80957031 C20.5735212,7.21777344 20.7170759,7.84960938 20.7170759,8.70507812 C20.7170759,9.55664062 20.5754743,10.1835938 20.2922712,10.5859375 C20.0090681,10.9882812 19.5744978,11.1894531 18.9885603,11.1894531 Z M28.0990513,13.1171875 C29.3021763,13.1171875 30.405692,12.9453125 31.4095982,12.6015625 L31.4095982,12.6015625 L31.4095982,7.984375 L27.7123326,7.984375 L27.7123326,9.77148438 L29.2416295,9.77148438 L29.2416295,11.1132812 C28.952567,11.1796875 28.6361607,11.2128906 28.2924107,11.2128906 C27.6635045,11.2128906 27.1820592,11.0029297 26.8480748,10.5830078 C26.5140904,10.1630859 26.3470982,9.55273438 26.3470982,8.75195312 C26.3470982,7.93554688 26.5316685,7.30761719 26.9008092,6.86816406 C27.2699498,6.42871094 27.7924107,6.20898438 28.468192,6.20898438 C29.2064732,6.20898438 29.8842076,6.36132812 30.5013951,6.66601562 L30.5013951,6.66601562 L31.233817,4.84960938 C30.8783482,4.69335938 30.461356,4.56445312 29.9828404,4.46289062 C29.5043248,4.36132812 28.9955357,4.31054688 28.4564732,4.31054688 C27.0345982,4.31054688 25.9291295,4.6953125 25.140067,5.46484375 C24.3510045,6.234375 23.9564732,7.31054688 23.9564732,8.69335938 C23.9564732,10.1113281 24.3168248,11.203125 25.0375279,11.96875 C25.758231,12.734375 26.7787388,13.1171875 28.0990513,13.1171875 Z M35.0415737,13 L35.0415737,10.1582031 L35.6919643,10.1582031 C36.7310268,10.1582031 37.5327846,9.89746094 38.0972377,9.37597656 C38.6616908,8.85449219 38.9439174,8.11523438 38.9439174,7.15820312 C38.9439174,6.28710938 38.672433,5.61523438 38.1294643,5.14257812 C37.5864955,4.66992188 36.7739955,4.43359375 35.6919643,4.43359375 L35.6919643,4.43359375 L32.7271205,4.43359375 L32.7271205,13 L35.0415737,13 Z M35.4634487,8.27148438 L35.0415737,8.27148438 L35.0415737,6.30273438 L35.6392299,6.30273438 C36.2798549,6.30273438 36.6001674,6.59179688 36.6001674,7.16992188 C36.6001674,7.51367188 36.4976283,7.78320312 36.2925502,7.97851562 C36.0874721,8.17382812 35.8111049,8.27148438 35.4634487,8.27148438 L35.4634487,8.27148438 Z M45.4938616,13 L45.4938616,11.1308594 L42.1950335,11.1308594 L42.1950335,4.43359375 L39.8805804,4.43359375 L39.8805804,13 L45.4938616,13 Z M48.0535714,13 L48.4871652,11.3945312 L51.2703683,11.3945312 L51.6922433,13 L54.2234933,13 L51.3934152,4.3984375 L48.3055246,4.3984375 L45.5106027,13 L48.0535714,13 Z M50.7898996,9.49609375 L48.9676339,9.49609375 C49.3231027,8.15234375 49.5525949,7.25195312 49.6561105,6.79492188 C49.7596261,6.33789062 49.8289621,6.00976562 49.8641183,5.81054688 C49.9031808,6.02539062 49.9842355,6.38085938 50.1072824,6.87695312 C50.2303292,7.37304688 50.3348214,7.77734375 50.4207589,8.08984375 L50.4207589,8.08984375 L50.7898996,9.49609375 Z M58.5,13 L58.5,6.32617188 L60.5859375,6.32617188 L60.5859375,4.43359375 L54.09375,4.43359375 L54.09375,6.32617188 L56.1855469,6.32617188 L56.1855469,13 L58.5,13 Z M63.6612723,13 L63.6612723,9.78320312 L66.2276786,9.78320312 L66.2276786,7.92578125 L63.6612723,7.92578125 L63.6612723,6.29101562 L66.4444754,6.29101562 L66.4444754,4.43359375 L61.3819754,4.43359375 L61.3819754,13 L63.6612723,13 Z M71.2717634,13.1171875 C72.6350446,13.1171875 73.6702009,12.7421875 74.3772321,11.9921875 C75.0842634,11.2421875 75.437779,10.1464844 75.437779,8.70507812 C75.437779,7.25976562 75.0862165,6.1640625 74.3830915,5.41796875 C73.6799665,4.671875 72.6467634,4.29882812 71.2834821,4.29882812 C69.9241071,4.29882812 68.8879743,4.67480469 68.1750837,5.42675781 C67.4621931,6.17871094 67.1057478,7.26757812 67.1057478,8.69335938 C67.1057478,10.1347656 67.4641462,11.2324219 68.1809431,11.9863281 C68.89774,12.7402344 69.9280134,13.1171875 71.2717634,13.1171875 Z M71.2717634,11.1894531 C70.1194196,11.1894531 69.5432478,10.3613281 69.5432478,8.70507812 C69.5432478,7.03320312 70.1233259,6.19726562 71.2834821,6.19726562 C71.8537946,6.19726562 72.2825056,6.40136719 72.569615,6.80957031 C72.8567243,7.21777344 73.000279,7.84960938 73.000279,8.70507812 C73.000279,9.55664062 72.8586775,10.1835938 72.5754743,10.5859375 C72.2922712,10.9882812 71.8577009,11.1894531 71.2717634,11.1894531 Z M78.8705357,13 L78.8705357,9.8828125 L79.4564732,9.8828125 L81.2728795,13 L83.8978795,13 L81.4017857,9.26757812 C82.3705357,8.72460938 82.8549107,7.95703125 82.8549107,6.96484375 C82.8549107,5.27734375 81.6908482,4.43359375 79.3627232,4.43359375 L79.3627232,4.43359375 L76.5560826,4.43359375 L76.5560826,13 L78.8705357,13 Z M79.3041295,8.14257812 L78.8705357,8.14257812 L78.8705357,6.18554688 L79.327567,6.18554688 C80.1205357,6.18554688 80.5170201,6.48046875 80.5170201,7.0703125 C80.5170201,7.78515625 80.1127232,8.14257812 79.3041295,8.14257812 L79.3041295,8.14257812 Z M86.2993862,13 L86.2993862,9.27929688 C86.2993862,8.69726562 86.2583705,7.88085938 86.1763393,6.83007812 L86.1763393,6.83007812 L86.2290737,6.83007812 L87.9810268,13 L90.1841518,13 L91.9126674,6.84179688 L91.9654018,6.84179688 C91.9185268,7.77148438 91.8921596,8.35546875 91.8863002,8.59375 C91.8804408,8.83203125 91.8775112,9.04882812 91.8775112,9.24414062 L91.8775112,9.24414062 L91.8775112,13 L94.0044643,13 L94.0044643,4.43359375 L90.9165737,4.43359375 L89.1646205,10.515625 L89.1177455,10.515625 L87.3306362,4.43359375 L84.2486049,4.43359375 L84.2486049,13 L86.2993862,13 Z M96.2477679,13.1464844 C96.6227679,13.1464844 96.9167132,13.0478516 97.1296038,12.8505859 C97.3424944,12.6533203 97.4489397,12.3789062 97.4489397,12.0273438 C97.4489397,11.6679688 97.3454241,11.390625 97.1383929,11.1953125 C96.9313616,11 96.6344866,10.9023438 96.2477679,10.9023438 C95.8415179,10.9023438 95.5319475,11 95.3190569,11.1953125 C95.1061663,11.390625 94.999721,11.6679688 94.999721,12.0273438 C94.999721,12.3828125 95.1110491,12.6582031 95.3337054,12.8535156 C95.5563616,13.0488281 95.8610491,13.1464844 96.2477679,13.1464844 Z" id="Logo---BLOGPLATFORM."></path>
            </g>
        </g>
    </g>
</svg>